<?xml version="1.0" encoding="UTF-8" standalone="no"?>
<!DOCTYPE svg PUBLIC "-//W3C//DTD SVG 1.1//EN"
 "http://www.w3.org/Graphics/SVG/1.1/DTD/svg11.dtd">
<!-- Generated by graphviz version 2.26.0 (20091210.2329)
 -->
<!-- Title: G Pages: 1 -->
<svg width="112pt" height="153pt"
 viewBox="0.00 0.00 112.00 153.00" xmlns="http://www.w3.org/2000/svg" xmlns:xlink="http://www.w3.org/1999/xlink">
<g id="graph1" class="graph" transform="scale(1 1) rotate(0) translate(4 149)">
<title>G</title>
<polygon fill="white" stroke="white" points="-4,5 -4,-149 109,-149 109,5 -4,5"/>
<g id="graph2" class="cluster"><title>cluster_Global</title>
<polyline fill="none" stroke="gray" points="20,-8 84,-8 "/>
<path fill="none" stroke="gray" d="M84,-8C90,-8 96,-14 96,-20"/>
<polyline fill="none" stroke="gray" points="96,-20 96,-125 "/>
<path fill="none" stroke="gray" d="M96,-125C96,-131 90,-137 84,-137"/>
<polyline fill="none" stroke="gray" points="84,-137 20,-137 "/>
<path fill="none" stroke="gray" d="M20,-137C14,-137 8,-131 8,-125"/>
<polyline fill="none" stroke="gray" points="8,-125 8,-20 "/>
<path fill="none" stroke="gray" d="M8,-20C8,-14 14,-8 20,-8"/>
<text text-anchor="middle" x="52" y="-123.1" font-family="Times Roman,serif" font-size="11.00" fill="gray">Global</text>
</g>
<!-- \\Driver -->
<g id="node2" class="node"><title>\\Driver</title>
<polygon fill="none" stroke="black" points="80,-106 24,-106 24,-70 80,-70 80,-106"/>
<text text-anchor="middle" x="52" y="-85.1" font-family="Courier,monospace" font-size="11.00">Driver</text>
</g>
<!-- \\DBDetail -->
<g id="node3" class="node"><title>\\DBDetail</title>
<polygon fill="none" stroke="black" points="87,-52 17,-52 17,-16 87,-16 87,-52"/>
<text text-anchor="middle" x="52" y="-31.1" font-family="Courier,monospace" font-size="11.00">DBDetail</text>
</g>
</g>
</svg>
